<mxfile host="app.diagrams.net" modified="2024-06-26T12:24:02.703Z" agent="Mozilla/5.0 (Windows NT 10.0; Win64; x64) AppleWebKit/537.36 (KHTML, like Gecko) Chrome/126.0.0.0 Safari/537.36" etag="HOFHT777EKysz2s8TfbM" version="24.6.3" type="device">
  <diagram name="Page-1" id="69jPTwkPQkmuulLBMO-e">
    <mxGraphModel dx="724" dy="384" grid="1" gridSize="10" guides="1" tooltips="1" connect="1" arrows="1" fold="1" page="1" pageScale="1" pageWidth="850" pageHeight="1100" math="0" shadow="0">
      <root>
        <mxCell id="0" />
        <mxCell id="1" parent="0" />
        <mxCell id="q3lo9CXI2OCD7pYcguK1-1" value="" style="rounded=0;whiteSpace=wrap;html=1;" vertex="1" parent="1">
          <mxGeometry x="370" y="170" width="240" height="150" as="geometry" />
        </mxCell>
        <mxCell id="q3lo9CXI2OCD7pYcguK1-2" value="Formateur" style="shape=umlActor;verticalLabelPosition=bottom;verticalAlign=top;html=1;outlineConnect=0;" vertex="1" parent="1">
          <mxGeometry x="280" y="270" width="30" height="60" as="geometry" />
        </mxCell>
        <mxCell id="q3lo9CXI2OCD7pYcguK1-7" value="" style="endArrow=block;endSize=16;endFill=0;html=1;rounded=0;" edge="1" parent="1" source="q3lo9CXI2OCD7pYcguK1-2" target="q3lo9CXI2OCD7pYcguK1-3">
          <mxGeometry width="160" relative="1" as="geometry">
            <mxPoint x="340" y="290" as="sourcePoint" />
            <mxPoint x="500" y="290" as="targetPoint" />
          </mxGeometry>
        </mxCell>
        <mxCell id="q3lo9CXI2OCD7pYcguK1-3" value="Ã‰tudiant" style="shape=umlActor;verticalLabelPosition=top;verticalAlign=bottom;html=1;outlineConnect=0;labelPosition=center;align=center;" vertex="1" parent="1">
          <mxGeometry x="280" y="130" width="30" height="60" as="geometry" />
        </mxCell>
      </root>
    </mxGraphModel>
  </diagram>
</mxfile>
